<?xml version="1.0" encoding="UTF-8" standalone="no"?>
<svg
   height="2475.3911"
   preserveAspectRatio="xMidYMid"
   viewBox="0 -1.428 253.3359 287.25231"
   width="2202.4727"
   version="1.1"
   id="svg5"
   sodipodi:docname="c-sharp-icon.svg"
   inkscape:version="1.3.2 (091e20e, 2023-11-25, custom)"
   xmlns:inkscape="http://www.inkscape.org/namespaces/inkscape"
   xmlns:sodipodi="http://sodipodi.sourceforge.net/DTD/sodipodi-0.dtd"
   xmlns="http://www.w3.org/2000/svg"
   xmlns:svg="http://www.w3.org/2000/svg">
  <defs
     id="defs5" />
  <sodipodi:namedview
     id="namedview5"
     pagecolor="#ffffff"
     bordercolor="#000000"
     borderopacity="0.25"
     inkscape:showpageshadow="2"
     inkscape:pageopacity="0.0"
     inkscape:pagecheckerboard="0"
     inkscape:deskcolor="#d1d1d1"
     inkscape:zoom="0.22995113"
     inkscape:cx="858.87816"
     inkscape:cy="1185.0344"
     inkscape:window-width="1920"
     inkscape:window-height="1009"
     inkscape:window-x="-8"
     inkscape:window-y="-8"
     inkscape:window-maximized="1"
     inkscape:current-layer="svg5" />
  <path
     id="path1"
     style="fill:#ffffff;fill-opacity:1"
     d="m 126.36108,-1.4261077 c -4.50673,0.058 -9.0052,1.44904434 -13.5562,4.1340389 C 99.261902,10.693915 31.456856,49.541042 11.251896,61.24402 2.9309136,66.06201 -1.1180764,73.434058 -1.1200764,83.015038 c -0.013,39.454922 8.11e-5,78.910052 -0.012919,118.364972 0,4.724 0.99088978,8.91003 2.9878858,12.51703 2.0529958,3.711 5.1691357,6.81299 9.3861265,9.25399 20.20596,11.70298 88.020035,50.54688 101.560013,58.53586 9.10598,5.373 17.99699,5.56515 27.16997,0.27017 34.01494,-19.63996 68.07516,-39.19908 102.1051,-58.81804 4.21698,-2.44 7.3329,-5.54397 9.3859,-9.25195 0.49755,-0.9003 0.93261,-1.83659 1.30548,-2.80816 0.001,-0.004 0.003,-0.008 0.004,-0.0116 0.36928,-0.96374 0.67672,-1.96265 0.92381,-2.99536 0.004,-0.0177 0.008,-0.0355 0.0127,-0.0533 0.24315,-1.02611 0.42616,-2.08581 0.54939,-3.17873 0.12649,-1.12253 0.19129,-2.27926 0.19129,-3.47109 0,0 8e-5,-78.88911 -0.0129,-118.345032 -5e-4,-1.207498 -0.0656,-2.379866 -0.19537,-3.516427 -0.12977,-1.136559 -0.32426,-2.237317 -0.58407,-3.301565 -0.25981,-1.064248 -0.58485,-2.091837 -0.97549,-3.082397 -0.39064,-0.990561 -0.84692,-1.944106 -1.36917,-2.859604 -2.05171,-3.602912 -5.12468,-6.621912 -9.24668,-9.008906 -34.02492,-19.618962 -68.083,-39.177944 -102.09694,-58.8169042 -4.58498,-2.64699456 -9.10022,-3.9221024 -13.60697,-3.8641025 z m 0.96189,48.6230077 9.1e-4,0.0011 c 35.03053,0 65.62122,18.968584 82.09467,47.187199 l 0.007,-0.0043 0.16001,0.273109 c -0.053,-0.0915 -0.11419,-0.177493 -0.16749,-0.268803 L 168.07589,118.18905 C 159.92992,104.39608 144.99601,95.086961 127.86307,94.894961 l -0.5401,-0.0029 c -26.12491,0 -47.305052,21.180139 -47.305052,47.305049 a 47.08,47.08 0 0 0 6.239135,23.46997 c 8.153976,14.23494 23.482887,23.836 41.066827,23.836 17.69294,0 33.1092,-9.72305 41.22117,-24.11002 l -0.19695,0.34496 41.2869,23.91804 c -16.25497,28.12991 -46.518,47.15701 -81.25291,47.53601 l -1.05821,0.006 c -35.254896,0 -66.024824,-19.20398 -82.418776,-47.72389 -8.002976,-13.92297 -12.582074,-30.06399 -12.582074,-47.27696 0,-52.465829 42.532104,-95.000164 94.99994,-95.000164 z m 66.699,67.66905 h 6.73708 v 13.47393 h 13.47393 v -13.47393 h 6.73708 v 13.47393 h 13.47393 v 6.73708 h -13.47393 v 13.47303 h 13.47393 v 6.73707 h -13.47393 v 13.47393 h -6.73708 v -13.47393 h -13.47393 v 13.47393 h -6.73708 v -13.47393 h -13.47302 v -6.73707 h 13.47302 v -13.47303 h -13.47302 v -6.73708 h 13.47302 z m 6.73708,20.21011 v 13.47393 h 13.47393 v -13.47393 z" />
</svg>
