<?xml version="1.0" encoding="UTF-8" standalone="no"?>
<!-- Created with Inkscape (http://www.inkscape.org/) -->

<svg
   width="32.510677mm"
   height="32.51067mm"
   viewBox="0 0 32.510677 32.51067"
   version="1.1"
   id="svg1"
   xml:space="preserve"
   xmlns:inkscape="http://www.inkscape.org/namespaces/inkscape"
   xmlns:sodipodi="http://sodipodi.sourceforge.net/DTD/sodipodi-0.dtd"
   xmlns="http://www.w3.org/2000/svg"
   xmlns:svg="http://www.w3.org/2000/svg"><sodipodi:namedview
     id="namedview1"
     pagecolor="#ffffff"
     bordercolor="#000000"
     borderopacity="0.25"
     inkscape:showpageshadow="2"
     inkscape:pageopacity="0.0"
     inkscape:pagecheckerboard="0"
     inkscape:deskcolor="#d1d1d1"
     inkscape:document-units="mm" /><defs
     id="defs1" /><style
     type="text/css"
     id="style1">.st0{fill:#F05133;}</style><path
     class="st0"
     d="M 31.897502,14.805424 17.702602,0.61317359 c -0.81756,-0.81756 -2.14312,-0.81756 -2.96069,0 l -2.94745,2.94746001 3.73856,3.73856 c 0.87048,-0.29369 1.86531,-0.0979 2.55852,0.59531 0.69585,0.69586 0.89165,1.70127 0.59002,2.5744004 l 3.60363,3.60362 c 0.87312,-0.30162 1.87854,-0.10583 2.57439,0.59002 0.97367,0.97367 0.97367,2.55059 0,3.52161 -0.97367,0.97367 -2.55058,0.97367 -3.52425,0 -0.73289,-0.7329 -0.91281,-1.80711 -0.54239,-2.70933 l -3.36021,-3.36021 v 8.84502 c 0.23812,0.11641 0.46037,0.27516 0.65881,0.47096 0.97367,0.97366 0.97367,2.55058 0,3.52425 -0.97367,0.97366 -2.55058,0.97366 -3.5216,0 -0.97367,-0.97367 -0.97367,-2.55059 0,-3.52425 0.24077,-0.24077 0.51858,-0.42069 0.81491,-0.5424 v -8.92704 c -0.29633,-0.12171 -0.57414,-0.30163 -0.81491,-0.5424 -0.73819,-0.73554 -0.91546,-1.8176804 -0.53711,-2.7225604 l -3.68829,-3.68829 -9.73137983,9.7340204 c -0.81756,0.81756 -0.81756,2.14312 0,2.96069 L 14.808062,31.897504 c 0.81756,0.81757 2.14313,0.81757 2.96069,0 l 14.12875,-14.1261 c 0.81756,-0.82021 0.81756,-2.14577 0,-2.96598 z m 0,0 z"
     id="path1-07"
     style="fill:#ffffff;stroke-width:0.264583" /></svg>
