<?xml version="1.0" encoding="UTF-8" standalone="no"?>
<!-- Created with Inkscape (http://www.inkscape.org/) -->

<svg
   width="23.982508mm"
   height="32.511257mm"
   viewBox="0 0 23.982508 32.511257"
   version="1.1"
   id="svg1"
   xml:space="preserve"
   xmlns:inkscape="http://www.inkscape.org/namespaces/inkscape"
   xmlns:sodipodi="http://sodipodi.sourceforge.net/DTD/sodipodi-0.dtd"
   xmlns="http://www.w3.org/2000/svg"
   xmlns:svg="http://www.w3.org/2000/svg"><sodipodi:namedview
     id="namedview1"
     pagecolor="#ffffff"
     bordercolor="#000000"
     borderopacity="0.25"
     inkscape:showpageshadow="2"
     inkscape:pageopacity="0.0"
     inkscape:pagecheckerboard="0"
     inkscape:deskcolor="#d1d1d1"
     inkscape:document-units="mm" /><defs
     id="defs1" /><g
     inkscape:label="Camada 1"
     inkscape:groupmode="layer"
     id="layer1"
     transform="translate(-93.036425,-132.24437)"><g
       id="g8"
       transform="matrix(0.26458333,0,0,0.26458333,93.039741,132.24437)"><path
         class="st0"
         d="m 29.19,95.03 c 0,0 -4.7,2.73 3.34,3.65 9.74,1.11 14.71,0.95 25.44,-1.08 0,0 2.82,1.77 6.76,3.3 -24.05,10.32 -54.44,-0.59 -35.54,-5.87 z"
         id="path1"
         style="fill:#ffffff;fill-opacity:1" /><path
         class="st0"
         d="m 26.25,81.58 c 0,0 -5.27,3.9 2.78,4.73 10.4,1.07 18.62,1.16 32.83,-1.58 0,0 1.97,1.99 5.06,3.08 -29.09,8.51 -61.49,0.67 -40.67,-6.23 z"
         id="path2"
         style="fill:#ffffff;fill-opacity:1" /><path
         class="st1"
         d="m 51.03,58.76 c 5.93,6.82 -1.56,12.96 -1.56,12.96 0,0 15.05,-7.77 8.14,-17.5 C 51.15,45.15 46.2,40.64 73,25.1 c 0,0 -42.06,10.5 -21.97,33.66 z"
         id="path3"
         style="fill:#ffffff;fill-opacity:1" /><path
         class="st0"
         d="m 82.84,104.98 c 0,0 3.47,2.86 -3.83,5.08 -13.88,4.21 -57.79,5.48 -69.99,0.17 -4.38,-1.91 3.84,-4.55 6.42,-5.11 2.7,-0.59 4.24,-0.48 4.24,-0.48 -4.88,-3.43 -31.52,6.74 -13.53,9.66 49.05,7.95 89.41,-3.58 76.69,-9.32 z"
         id="path4"
         style="fill:#ffffff;fill-opacity:1" /><path
         class="st0"
         d="m 31.45,67.64 c 0,0 -22.33,5.3 -7.91,7.23 6.09,0.82 18.23,0.63 29.54,-0.32 9.24,-0.78 18.52,-2.44 18.52,-2.44 0,0 -3.26,1.4 -5.62,3.01 C 43.3,81.08 -0.51,78.31 12.1,72.21 22.77,67.05 31.45,67.64 31.45,67.64 Z"
         id="path5"
         style="fill:#ffffff;fill-opacity:1" /><path
         class="st0"
         d="M 71.51,90.03 C 94.56,78.05 83.9,66.54 76.46,68.09 c -1.82,0.38 -2.64,0.71 -2.64,0.71 0,0 0.68,-1.06 1.97,-1.52 14.72,-5.17 26.04,15.26 -4.75,23.36 0.01,0 0.36,-0.32 0.47,-0.61 z"
         id="path6"
         style="fill:#ffffff;fill-opacity:1" /><path
         class="st1"
         d="m 57.61,0 c 0,0 12.77,12.77 -12.11,32.41 -19.95,15.75 -4.55,24.74 -0.01,35 C 33.85,56.91 25.3,47.66 31.03,39.05 39.45,26.41 62.76,20.29 57.61,0 Z"
         id="path7"
         style="fill:#ffffff;fill-opacity:1" /><path
         class="st0"
         d="m 33.71,122.49 c 22.13,1.42 56.11,-0.79 56.92,-11.26 0,0 -1.55,3.97 -18.29,7.12 -18.89,3.55 -42.18,3.14 -56,0.86 0,0.01 2.83,2.35 17.37,3.28 z"
         id="path8"
         style="fill:#ffffff;fill-opacity:1" /></g></g><style
     type="text/css"
     id="style1">.st0{fill-rule:evenodd;clip-rule:evenodd;fill:#5382A1;} .st1{fill-rule:evenodd;clip-rule:evenodd;fill:#E76F00;}</style></svg>
