<?xml version="1.0" encoding="UTF-8" standalone="no"?>
<!-- Created with Inkscape (http://www.inkscape.org/) -->

<svg
   width="158.4537mm"
   height="352.77448mm"
   viewBox="0 0 158.4537 352.77448"
   version="1.1"
   id="svg1"
   xml:space="preserve"
   xmlns:inkscape="http://www.inkscape.org/namespaces/inkscape"
   xmlns:sodipodi="http://sodipodi.sourceforge.net/DTD/sodipodi-0.dtd"
   xmlns="http://www.w3.org/2000/svg"
   xmlns:svg="http://www.w3.org/2000/svg"><sodipodi:namedview
     id="namedview1"
     pagecolor="#ffffff"
     bordercolor="#000000"
     borderopacity="0.25"
     inkscape:showpageshadow="2"
     inkscape:pageopacity="0.0"
     inkscape:pagecheckerboard="0"
     inkscape:deskcolor="#d1d1d1"
     inkscape:document-units="mm" /><defs
     id="defs1" /><g
     style="clip-rule:evenodd;fill-rule:evenodd;image-rendering:optimizeQuality;shape-rendering:geometricPrecision;text-rendering:geometricPrecision"
     id="g1"
     transform="matrix(0.26458333,0,0,0.26458333,5.040688e-4,2.1969316e-4)"><g
       fill-rule="nonzero"
       id="g3"
       style="fill:#ffffff"><path
         d="m 295.27,3.65 35.58,66.83 c 8,12.33 16.67,23.25 26.87,33.42 29.79,29.79 58.08,60.99 83.5,94.41 60.28,79.16 100.95,167.07 129.98,262.14 17.42,58.08 26.87,117.66 27.58,177.9 2.91,180.11 -58.83,334.76 -183.31,463.28 -20.33,20.33 -42.08,39.16 -65.41,55.91 -12.33,0 -18.17,-9.46 -23.25,-18.16 -9.45,-15.96 -15.25,-34.17 -18.16,-52.29 -4.38,-21.8 -7.25,-43.58 -5.83,-66.08 v -10.16 C 301.82,1008.68 290.95,8.78 295.28,3.66 v 0.01 z"
         fill="#599636"
         id="path1"
         style="fill:#f4f4f4;fill-opacity:1" /><path
         d="m 295.27,1.43 c -1.46,-2.91 -2.91,-0.71 -4.38,0.71 0.71,14.58 -4.38,27.58 -12.33,40 C 269.81,54.47 258.23,63.94 246.6,74.1 182.03,130.01 131.2,197.55 90.49,273.08 36.33,374.74 8.41,483.68 0.5,598.38 c -3.62,41.37 13.09,187.36 26.13,229.48 35.58,111.82 99.49,205.52 182.27,286.84 20.33,19.58 42.08,37.74 64.58,55.2 6.54,0 7.25,-5.83 8.74,-10.17 2.85,-9.28 5.06,-18.76 6.54,-28.34 L 303.34,1022.49 295.26,1.43 Z"
         fill="#6cac48"
         id="path2"
         style="fill:#ffffff" /><path
         d="m 330.85,1201.77 c 1.46,-16.67 9.46,-30.5 18.17,-44.29 -8.75,-3.62 -15.25,-10.83 -20.33,-18.87 -4.38,-7.25 -8,-15.96 -10.83,-23.96 -10.17,-30.5 -12.33,-62.5 -15.25,-93.66 v -18.87 c -3.62,2.91 -4.38,27.58 -4.38,31.25 -2.03,32.85 -6.54,65.8 -13.08,98.05 -2.17,13.08 -3.62,26.12 -11.67,37.74 0,1.46 0,2.91 0.71,5.09 13.08,38.5 16.67,77.7 18.87,117.66 v 14.58 c 0,17.41 -0.71,13.74 13.75,19.58 5.83,2.17 12.33,2.91 18.16,7.25 4.38,0 5.09,-3.62 5.09,-6.54 l -2.17,-23.96 v -66.83 c -0.71,-11.67 1.46,-23.25 2.91,-34.16 z"
         fill="#c2bfbf"
         id="path3"
         style="fill:#a7a7a7;fill-opacity:1" /></g></g></svg>
