<?xml version="1.0" encoding="UTF-8" standalone="no"?>
<!-- Created with Inkscape (http://www.inkscape.org/) -->

<svg
   width="32.512001mm"
   height="22.137297mm"
   viewBox="0 0 32.512001 22.137297"
   version="1.1"
   id="svg1"
   xml:space="preserve"
   xmlns:inkscape="http://www.inkscape.org/namespaces/inkscape"
   xmlns:sodipodi="http://sodipodi.sourceforge.net/DTD/sodipodi-0.dtd"
   xmlns="http://www.w3.org/2000/svg"
   xmlns:svg="http://www.w3.org/2000/svg"><sodipodi:namedview
     id="namedview1"
     pagecolor="#ffffff"
     bordercolor="#000000"
     borderopacity="0.25"
     inkscape:showpageshadow="2"
     inkscape:pageopacity="0.0"
     inkscape:pagecheckerboard="0"
     inkscape:deskcolor="#d1d1d1"
     inkscape:document-units="mm" /><defs
     id="defs1"><style
       id="style1-9">.cls-1,.cls-4{fill:#00758f;}.cls-2,.cls-3{fill:#f29111;}.cls-3,.cls-4{fill-rule:evenodd;}</style></defs><style
     type="text/css"
     id="style1">.st0{fill:#F05133;}</style><style
     type="text/css"
     id="style1-7">.st0{fill-rule:evenodd;clip-rule:evenodd;fill:#DD0031;} .st1{fill-rule:evenodd;clip-rule:evenodd;fill:#C3002F;} .st2{fill-rule:evenodd;clip-rule:evenodd;fill:#FFFFFF;}</style><style
     type="text/css"
     id="style1-73">.st0{fill-rule:evenodd;clip-rule:evenodd;fill:#DD0031;} .st1{fill-rule:evenodd;clip-rule:evenodd;fill:#C3002F;} .st2{fill-rule:evenodd;clip-rule:evenodd;fill:#FFFFFF;}</style><g
     id="g5"
     transform="matrix(0.26458333,0,0,0.26458333,-8.1528567e-7,-4.1137023e-4)"
     style="fill:#ffffff"><path
       class="cls-1"
       d="M 29.54,76.23 H 24.8 q -0.24,-12 -1.38,-22.64 v 0 L 16.16,76.23 H 12.55 L 5.37,53.59 v 0 q -0.79,10.19 -1,22.64 H 0 Q 0.42,61.08 2.1,47.82 H 8 l 6.84,20.87 v 0 l 6.88,-20.87 h 5.62 q 1.84,15.52 2.18,28.41 z m 0,0 z"
       id="path1-5"
       style="fill:#ffffff" /><path
       class="cls-1"
       d="m 50.11,55.27 q -2.89,15.73 -7.64,22.9 -3.69,5.51 -8.1,5.5 a 7.89,7.89 0 0 1 -2.89,-0.7 v -2.53 a 14.05,14.05 0 0 0 2,0.12 4.74,4.74 0 0 0 3.31,-1.14 4.13,4.13 0 0 0 1.51,-3.11 20.77,20.77 0 0 0 -1.17,-4.84 l -5.2,-16.2 h 4.65 l 3.74,12.12 q 1.26,4.13 1.05,5.76 a 79.31,79.31 0 0 0 4.28,-17.88 z m 0,0 z"
       id="path2-4"
       style="fill:#ffffff" /><path
       class="cls-2"
       d="M 70.88,68.35 A 7.56,7.56 0 0 1 68.24,74.29 10.42,10.42 0 0 1 61.15,76.6 14.22,14.22 0 0 1 53.09,74 l 1.22,-2.44 a 13.76,13.76 0 0 0 6.08,1.68 6.39,6.39 0 0 0 4,-1.13 3.9,3.9 0 0 0 1.54,-3.16 c 0,-1.68 -1.17,-3.12 -3.33,-4.33 -2,-1.1 -6,-3.38 -6,-3.38 a 6.79,6.79 0 0 1 -3.24,-6 7.09,7.09 0 0 1 2.42,-5.58 9.06,9.06 0 0 1 6.23,-2.13 12.87,12.87 0 0 1 7.17,2.11 L 68.15,52 a 13.74,13.74 0 0 0 -5.45,-1.18 4.87,4.87 0 0 0 -3.36,1 3.55,3.55 0 0 0 -1.27,2.7 c 0,1.68 1.2,3.14 3.41,4.37 2,1.09 6.08,3.42 6.08,3.42 2.22,1.57 3.32,3.25 3.32,6 z m 0,0 z"
       id="path3-5"
       style="fill:#ffffff" /><path
       class="cls-3"
       d="m 79.35,70.54 c -1.14,-1.85 -1.72,-4.82 -1.72,-8.91 q 0,-10.74 6.51,-10.73 a 5.45,5.45 0 0 1 5,2.56 q 1.73,2.77 1.72,8.84 0,10.82 -6.5,10.81 a 5.47,5.47 0 0 1 -5,-2.56 z M 96.22,76.91 91,74.34 a 9.72,9.72 0 0 0 1.3,-1.27 q 3.32,-3.91 3.32,-11.57 0,-14.1 -11,-14.1 A 10.44,10.44 0 0 0 76.16,51 q -3.31,3.92 -3.31,11.53 0,7.61 2.94,11 c 1.78,2.1 4.48,3.16 8.09,3.16 a 13.16,13.16 0 0 0 3.71,-0.5 l 6.78,3.95 1.85,-3.19 z m 0,0 z"
       id="path4"
       style="fill:#ffffff" /><polygon
       class="cls-2"
       points="113.22,72.73 113.22,76.23 99.75,76.23 99.75,47.82 104.28,47.82 104.28,72.73 "
       id="polygon4"
       style="fill:#ffffff" /><path
       class="cls-2"
       d="m 116.45,76.22 h 0.75 v -2.89 h 1 v -0.59 h -2.76 v 0.59 h 1 v 2.89 z m 5.72,0 h 0.71 v -3.48 h -1.07 l -0.87,2.38 -0.94,-2.38 h -1 v 3.48 h 0.67 v -2.64 0 l 1,2.64 h 0.51 l 1,-2.64 v 2.64 z m 0,0 z"
       id="path5"
       style="fill:#ffffff" /><path
       class="cls-4"
       d="m 118.91,38.31 a 15.86,15.86 0 0 0 -6.64,1 c -0.51,0.21 -1.33,0.21 -1.4,0.86 0.27,0.27 0.3,0.72 0.55,1.1 a 7.87,7.87 0 0 0 1.77,2.09 c 0.72,0.55 1.44,1.1 2.2,1.58 1.33,0.82 2.84,1.3 4.13,2.13 0.76,0.48 1.51,1.09 2.27,1.61 0.37,0.27 0.61,0.72 1.09,0.89 v -0.1 c -0.24,-0.31 -0.31,-0.76 -0.55,-1.1 l -1,-1 a 16.49,16.49 0 0 0 -3.56,-3.47 c -1.1,-0.76 -3.5,-1.79 -3.94,-3 l -0.07,-0.07 a 13.51,13.51 0 0 0 2.36,-0.56 c 1.17,-0.3 2.23,-0.23 3.42,-0.54 0.55,-0.14 1.1,-0.31 1.65,-0.48 v -0.31 c -0.62,-0.62 -1.06,-1.44 -1.71,-2 a 46.9,46.9 0 0 0 -5.65,-4.22 c -1.06,-0.68 -2.43,-1.13 -3.56,-1.71 -0.41,-0.21 -1.09,-0.31 -1.33,-0.66 a 13.87,13.87 0 0 1 -1.41,-2.64 c -1,-1.88 -2,-4 -2.8,-6 A 37.42,37.42 0 0 0 103,17.72 34.56,34.56 0 0 0 89.71,4.88 16.08,16.08 0 0 0 85.33,3.48 c -0.85,0 -1.71,-0.11 -2.56,-0.14 a 13.4,13.4 0 0 1 -1.58,-1.2 c -2,-1.24 -7,-3.91 -8.42,-0.38 -0.92,2.24 1.37,4.43 2.16,5.56 a 16.35,16.35 0 0 1 1.74,2.57 c 0.24,0.59 0.31,1.21 0.55,1.82 a 41.7,41.7 0 0 0 1.78,4.6 16.86,16.86 0 0 0 1.27,2.13 c 0.27,0.38 0.75,0.55 0.85,1.17 a 9.9,9.9 0 0 0 -0.78,2.57 c -1.24,3.88 -0.76,8.68 1,11.53 0.54,0.86 1.85,2.75 3.59,2 1.54,-0.61 1.2,-2.57 1.65,-4.28 0.1,-0.42 0,-0.69 0.23,-1 v 0.06 c 0.48,1 1,1.89 1.41,2.85 A 19.65,19.65 0 0 0 92.66,38 c 0.82,0.62 1.47,1.68 2.5,2.06 V 40 H 95.09 A 4,4 0 0 0 94.3,39.31 16.31,16.31 0 0 1 92.52,37.25 43.24,43.24 0 0 1 88.69,31 c -0.55,-1.07 -1,-2.24 -1.47,-3.3 -0.21,-0.41 -0.21,-1 -0.55,-1.23 a 12,12 0 0 0 -1.67,2.3 19,19 0 0 0 -1,5.18 c -0.14,0 -0.07,0 -0.14,0.07 -1.09,-0.28 -1.47,-1.41 -1.88,-2.37 a 14.85,14.85 0 0 1 -0.31,-9.16 c 0.24,-0.72 1.27,-3 0.85,-3.67 -0.2,-0.66 -0.89,-1 -1.26,-1.55 a 12.77,12.77 0 0 1 -1.23,-2.19 c -0.82,-1.93 -1.24,-4.05 -2.12,-6 A 19.24,19.24 0 0 0 76.19,6.44 16.78,16.78 0 0 1 74.31,3.77 C 74.14,3.39 73.9,2.77 74.17,2.36 a 0.55,0.55 0 0 1 0.48,-0.45 c 0.45,-0.38 1.71,0.1 2.16,0.31 A 17.11,17.11 0 0 1 80.27,4 c 0.48,0.34 1,1 1.6,1.16 h 0.72 c 1.1,0.24 2.33,0.07 3.36,0.38 a 21.63,21.63 0 0 1 4.93,2.37 30.37,30.37 0 0 1 10.67,11.74 c 0.42,0.78 0.59,1.51 1,2.33 0.72,1.68 1.61,3.4 2.33,5 a 22.85,22.85 0 0 0 2.43,4.6 c 0.52,0.72 2.57,1.1 3.49,1.48 a 23.92,23.92 0 0 1 2.37,1 c 1.16,0.72 2.32,1.54 3.42,2.33 0.54,0.42 2.26,1.27 2.36,2 z m 0,0 z"
       id="path6"
       style="fill:#ffffff" /><path
       class="cls-4"
       d="m 84,8.48 a 5.2,5.2 0 0 0 -1.41,0.18 v 0.07 h 0.07 a 12.56,12.56 0 0 0 1.1,1.4 c 0.27,0.55 0.51,1.1 0.78,1.65 l 0.07,-0.07 A 1.93,1.93 0 0 0 85.33,10 C 85.13,9.76 85.09,9.52 84.92,9.28 84.75,9.04 84.27,8.77 84,8.49 Z m 0,0 z"
       id="path7"
       style="fill:#ffffff" /></g></svg>
