<?xml version="1.0" encoding="UTF-8" standalone="no"?>
<!-- Created with Inkscape (http://www.inkscape.org/) -->

<svg
   width="135.46718mm"
   height="135.46719mm"
   viewBox="0 0 135.46718 135.46719"
   version="1.1"
   id="svg1"
   xml:space="preserve"
   xmlns:inkscape="http://www.inkscape.org/namespaces/inkscape"
   xmlns:sodipodi="http://sodipodi.sourceforge.net/DTD/sodipodi-0.dtd"
   xmlns="http://www.w3.org/2000/svg"
   xmlns:svg="http://www.w3.org/2000/svg"><sodipodi:namedview
     id="namedview1"
     pagecolor="#ffffff"
     bordercolor="#000000"
     borderopacity="0.25"
     inkscape:showpageshadow="2"
     inkscape:pageopacity="0.0"
     inkscape:pagecheckerboard="0"
     inkscape:deskcolor="#d1d1d1"
     inkscape:document-units="mm" /><defs
     id="defs1" /><g
     inkscape:label="Camada 1"
     inkscape:groupmode="layer"
     id="layer1"
     transform="translate(-37.111428,-80.766645)"><g
       style="clip-rule:evenodd;fill-rule:evenodd;stroke-linejoin:round;stroke-miterlimit:2"
       id="g1"
       transform="matrix(0.26458333,0,0,0.26458333,37.146876,80.852657)"><path
         id="path1"
         d="M -0.1339697,-0.32507973 V 511.67688 H 511.86799 V -0.32507973 Z M 125.78791,191.67492 h 25.07031 l 59.91602,95.48633 c 2.53399,3.96 4.16272,6.68202 4.88671,8.16602 h 0.36133 c -0.603,-3.525 -0.90429,-9.49517 -0.90429,-17.91016 v -85.74219 h 20.72656 v 133.07032 h -23.5332 l -61.9961,-97.80664 a 43.764,43.764 0 0 1 -3.89062,-7.70313 h -0.54297 c 0.483,2.847 0.72265,8.93931 0.72265,18.2793 v 87.23047 h -20.8164 z m 138.56836,0 h 69.96094 v 18.74414 h -48.41993 v 37.67579 h 44.61915 v 18.65234 h -44.61915 v 39.3457 h 51.31641 v 18.65235 h -72.85742 z m 80.37305,0 h 96.02734 v 18.74414 H 403.4676 V 324.74524 H 381.92854 V 210.41906 H 344.72932 Z M 91.121891,301.73156 c 3.679996,0 6.786315,1.2379 9.320309,3.7129 2.595,2.47399 3.89258,5.4432 3.89258,8.9082 0,3.402 -1.29758,6.33945 -3.89258,8.81445 -2.533994,2.413 -5.639313,3.61914 -9.320309,3.61914 -3.619997,0 -6.698425,-1.20614 -9.232422,-3.61914 -2.533998,-2.475 -3.798828,-5.41245 -3.798828,-8.81445 0,-3.465 1.26483,-6.43421 3.798828,-8.9082 2.533997,-2.475 5.612425,-3.7129 9.232422,-3.7129 z"
         inkscape:export-filename="path1.png"
         inkscape:export-xdpi="96"
         inkscape:export-ydpi="96"
         style="fill:#ffffff" /></g></g></svg>
