<?xml version="1.0" encoding="UTF-8" standalone="no"?>
<!-- Created with Inkscape (http://www.inkscape.org/) -->

<svg
   width="70.114578mm"
   height="135.69951mm"
   viewBox="0 0 70.114578 135.69951"
   version="1.1"
   id="svg1"
   xml:space="preserve"
   xmlns:inkscape="http://www.inkscape.org/namespaces/inkscape"
   xmlns:sodipodi="http://sodipodi.sourceforge.net/DTD/sodipodi-0.dtd"
   xmlns="http://www.w3.org/2000/svg"
   xmlns:svg="http://www.w3.org/2000/svg"><sodipodi:namedview
     id="namedview1"
     pagecolor="#ffffff"
     bordercolor="#000000"
     borderopacity="0.25"
     inkscape:showpageshadow="2"
     inkscape:pageopacity="0.0"
     inkscape:pagecheckerboard="0"
     inkscape:deskcolor="#d1d1d1"
     inkscape:document-units="mm" /><defs
     id="defs1" /><g
     style="clip-rule:evenodd;fill-rule:evenodd;image-rendering:optimizeQuality;shape-rendering:geometricPrecision;text-rendering:geometricPrecision"
     id="g2"
     transform="matrix(0.26458333,0,0,0.26458333,264.51532,-78.527994)"><path
       d="m -780.89303,691.04871 c 12.52,21.98 33.03,44.25 29.71,73.85 h -232.16 c -3.32,-29.6 19.95,-51.87 32.47,-73.85 z m -153.32,-244.94 h 133.94 c 7.64,0 13.89,6.29 13.89,13.89 0,7.6 -6.29,13.9 -13.89,13.9 h -133.94 c -7.6,0 -13.89,-6.25 -13.89,-13.9 0,-7.64 6.25,-13.89 13.89,-13.89 z m 66.97,-149.31 c 40.53,0 73.39,32.86 73.39,73.39 0,26.17 -13.7,49.14 -34.32,62.13 h -78.14 c -20.62,-12.99 -34.32,-35.96 -34.32,-62.13 0,-40.53 32.86,-73.39 73.39,-73.39 z m -58.95,190.88 c -1.39,55.62 -14.03,109.88 -27.94,145.81 h 173.78 c -16.19,-40.76 -29.57,-94.31 -31.44,-145.81 z m -30.96,159.63 h 179.82 c 8.24,0 14.97,6.77 14.97,14.96 0,8.19 -6.77,14.96 -14.97,14.96 h -179.82 c -8.2,0 -14.97,-6.73 -14.97,-14.96 0,-8.23 6.73,-14.96 14.97,-14.96 z m -27.12,131.42 h 234.06 c 8.51,0 15.47,6.96 15.47,15.47 0,8.51 -6.96,15.48 -15.47,15.48 h -234.06 c -8.51,0 -15.47,-6.97 -15.47,-15.48 0,-8.51 6.96,-15.47 15.47,-15.47 z"
       id="path1-0"
       style="fill:#ffffff" /></g></svg>
